<svg width="123" height="24" viewBox="0 0 123 24" fill="none" xmlns="http://www.w3.org/2000/svg">
<g clip-path="url(#clip0_73_504)">
<path fill-rule="evenodd" clip-rule="evenodd" d="M23.76 9.6C23.8659 10.1218 23.9379 10.656 23.9738 11.2H0.0262432C0.0620518 10.656 0.134116 10.1218 0.240043 9.6H23.76ZM22.6159 6.4C22.8868 6.91248 23.1217 7.44693 23.3172 8H0.682822C0.878303 7.44693 1.11318 6.91248 1.38407 6.4H22.6159ZM20.1585 3.2C20.6855 3.68878 21.1685 4.22431 21.6009 4.8H2.39912C2.83154 4.22431 3.31453 3.68878 3.84149 3.2H20.1585ZM6.00932 1.6C7.77225 0.582311 9.81812 0 12 0C14.1819 0 16.2277 0.582311 17.9907 1.6H6.00932ZM23.76 14.4C23.8659 13.8782 23.9379 13.344 23.9738 12.8H0.0262432C0.0620518 13.344 0.134116 13.8782 0.240043 14.4H23.76ZM23.3172 16H0.682822C0.878303 16.5531 1.11318 17.0875 1.38407 17.6H22.6159C22.8868 17.0875 23.1217 16.5531 23.3172 16ZM21.6009 19.2H2.39912C2.83154 19.7757 3.31453 20.3112 3.84149 20.8H20.1585C20.6855 20.3112 21.1685 19.7757 21.6009 19.2ZM17.9907 22.4H6.00932C7.77225 23.4177 9.81812 24 12 24C14.1819 24 16.2277 23.4177 17.9907 22.4Z" fill="url(#paint0_linear_73_504)"/>
</g>
<path d="M16.978 4.826H20.398L24.654 17.556L25.699 17.746V19H19.714V17.746L21.063 17.556L20.417 15.276H15.876L15.23 17.575L16.712 17.746V19H11.658L11.639 17.746L12.741 17.537L16.978 4.826ZM18.384 8.132L18.099 6.802L17.795 8.151L16.256 13.813H20.018L18.384 8.132ZM27.2956 10.431L26.1746 10.089V8.607L29.6326 8.189H29.6896L30.1836 8.588V9.291L30.1646 9.728C30.6079 9.31 31.1716 8.95533 31.8556 8.664C32.5396 8.37267 33.2553 8.227 34.0026 8.227C34.7626 8.227 35.3579 8.36633 35.7886 8.645C36.2319 8.911 36.5486 9.34167 36.7386 9.937C36.9413 10.5323 37.0426 11.343 37.0426 12.369V17.575L38.1066 17.727V19H32.9386V17.746L33.8696 17.575V12.388C33.8696 11.78 33.8253 11.3113 33.7366 10.982C33.6606 10.64 33.5213 10.393 33.3186 10.241C33.1159 10.089 32.8246 10.013 32.4446 10.013C31.8619 10.013 31.2033 10.2853 30.4686 10.83V17.575L31.5136 17.746V19H26.2506V17.746L27.2956 17.575V10.431ZM41.2303 23.731C40.9643 23.731 40.6856 23.712 40.3943 23.674C40.1156 23.636 39.913 23.5853 39.7863 23.522V21.242C39.875 21.3053 40.065 21.3623 40.3563 21.413C40.6476 21.4763 40.9136 21.508 41.1543 21.508C41.8003 21.508 42.3133 21.3053 42.6933 20.9C43.0733 20.4947 43.4216 19.8613 43.7383 19H42.6363L39.0833 9.88L38.2473 9.652V8.436H43.8523V9.652L42.5223 9.88L44.0993 14.934L44.6693 16.853L45.1253 14.934L46.5883 9.861L45.4483 9.652V8.436H49.7423V9.652L48.8303 9.861C48.2983 11.495 47.646 13.414 46.8733 15.618C46.1133 17.822 45.689 19.0253 45.6003 19.228C45.2203 20.2793 44.834 21.1217 44.4413 21.755C44.0613 22.401 43.6116 22.8887 43.0923 23.218C42.573 23.56 41.9523 23.731 41.2303 23.731ZM51.5899 6.479L50.1839 6.213V4.883H53.2809C53.4836 4.883 53.8762 4.87033 54.4589 4.845C55.1936 4.79433 55.8586 4.769 56.4539 4.769C57.8219 4.769 58.8986 4.93367 59.6839 5.263C60.4692 5.59233 61.0266 6.06733 61.3559 6.688C61.6852 7.296 61.8499 8.06867 61.8499 9.006C61.8499 10.6273 61.3559 11.8877 60.3679 12.787C59.3799 13.6863 57.9739 14.136 56.1499 14.136C55.5799 14.136 55.1429 14.117 54.8389 14.079V17.537L57.3469 17.746V19H50.1269V17.746L51.5899 17.556V6.479ZM54.8199 12.768C55.0732 12.8313 55.4912 12.863 56.0739 12.863C57.7206 12.863 58.5439 11.6027 58.5439 9.082C58.5439 8.03067 58.3349 7.26433 57.9169 6.783C57.5116 6.289 56.8972 6.042 56.0739 6.042C55.7192 6.042 55.4406 6.061 55.2379 6.099C55.0352 6.12433 54.8959 6.14333 54.8199 6.156V12.768ZM62.9703 17.746L64.1293 17.575V10.431L63.0083 10.089V8.607L66.1623 8.189H66.2193L66.7513 8.588V9.044L66.6943 10.621H66.7513C66.84 10.3297 67.0427 9.994 67.3593 9.614C67.676 9.22133 68.075 8.88567 68.5563 8.607C69.0503 8.31567 69.5823 8.17 70.1523 8.17C70.4817 8.17 70.735 8.21433 70.9123 8.303V11.609C70.7097 11.457 70.488 11.3367 70.2473 11.248C70.0193 11.1593 69.7217 11.115 69.3543 11.115C68.8983 11.115 68.4867 11.1783 68.1193 11.305C67.752 11.419 67.4607 11.552 67.2453 11.704V17.575L69.3353 17.765V19H62.9703V17.746ZM72.1372 13.775C72.1372 12.559 72.3779 11.533 72.8592 10.697C73.3406 9.84833 73.9866 9.215 74.7972 8.797C75.6206 8.379 76.5199 8.17 77.4952 8.17C79.0912 8.17 80.3389 8.65133 81.2382 9.614C82.1502 10.564 82.6062 11.894 82.6062 13.604C82.6062 14.858 82.3656 15.903 81.8842 16.739C81.4029 17.575 80.7569 18.1957 79.9462 18.601C79.1356 19.0063 78.2299 19.209 77.2292 19.209C75.6459 19.209 74.3982 18.734 73.4862 17.784C72.5869 16.8213 72.1372 15.485 72.1372 13.775ZM77.4192 17.879C78.0272 17.879 78.4769 17.556 78.7682 16.91C79.0722 16.2513 79.2242 15.2253 79.2242 13.832C79.2242 12.35 79.0786 11.2607 78.7872 10.564C78.5086 9.85467 78.0336 9.5 77.3622 9.5C76.1209 9.5 75.5002 10.849 75.5002 13.547C75.5002 15.0163 75.6522 16.1057 75.9562 16.815C76.2602 17.5243 76.7479 17.879 77.4192 17.879ZM84.3277 17.746L85.3347 17.575V10.431L84.2137 10.089V8.607L87.6717 8.189L87.8237 8.265L88.2037 8.797V9.747C88.609 9.329 89.2043 8.97433 89.9897 8.683C90.775 8.379 91.4463 8.227 92.0037 8.227C92.6877 8.227 93.2387 8.341 93.6567 8.569C94.0873 8.797 94.4103 9.15167 94.6257 9.633C95.0563 9.22767 95.5947 8.892 96.2407 8.626C96.8993 8.36 97.5643 8.227 98.2357 8.227C99.3503 8.227 100.148 8.55 100.63 9.196C101.124 9.842 101.371 10.8997 101.371 12.369V17.575L102.511 17.746V19H97.3617V17.746L98.2167 17.575V12.445C98.2167 11.533 98.109 10.8997 97.8937 10.545C97.691 10.1903 97.311 10.013 96.7537 10.013C96.171 10.013 95.563 10.26 94.9297 10.754C95.0057 11.2227 95.0437 11.761 95.0437 12.369V17.575L96.1077 17.746V19H90.9207V17.746L91.8707 17.575V12.388C91.8707 11.4887 91.7693 10.868 91.5667 10.526C91.3767 10.184 91.0093 10.013 90.4647 10.013C90.11 10.013 89.7553 10.0953 89.4007 10.26C89.0587 10.412 88.761 10.602 88.5077 10.83V17.575L89.5337 17.746V19H84.3277V17.746ZM114.451 13.376C114.451 14.4273 114.229 15.3963 113.786 16.283C113.355 17.1697 112.709 17.879 111.848 18.411C110.999 18.943 109.973 19.209 108.77 19.209C108.567 19.209 108.345 19.19 108.105 19.152C107.877 19.114 107.699 19.0697 107.573 19.019L107.63 20.558V22.173L109.264 22.42V23.598H103.431V22.42L104.59 22.173V10.431L103.431 10.089V8.607L106.832 8.189H106.87L107.383 8.588V9.614C107.674 9.22133 108.079 8.88567 108.599 8.607C109.131 8.31567 109.707 8.17 110.328 8.17C111.544 8.17 112.532 8.60067 113.292 9.462C114.064 10.3107 114.451 11.6153 114.451 13.376ZM109.207 9.918C108.877 9.918 108.567 9.98767 108.276 10.127C107.984 10.2537 107.769 10.412 107.63 10.602V17.556C107.718 17.67 107.87 17.765 108.086 17.841C108.314 17.917 108.561 17.955 108.827 17.955C109.536 17.955 110.1 17.613 110.518 16.929C110.948 16.245 111.164 15.1367 111.164 13.604C111.164 12.3627 110.986 11.438 110.632 10.83C110.277 10.222 109.802 9.918 109.207 9.918ZM119.099 19.171C118.263 19.171 117.642 18.981 117.237 18.601C116.844 18.2083 116.648 17.6067 116.648 16.796V10.032H115.489V8.93L115.869 8.778C116.173 8.67667 116.439 8.569 116.667 8.455C116.92 8.21433 117.123 7.89767 117.275 7.505C117.465 7.049 117.674 6.40933 117.902 5.586H119.669L119.783 8.436H122.5V10.032H119.821V15.067C119.821 15.7637 119.84 16.2513 119.878 16.53C119.916 16.8087 119.986 16.9923 120.087 17.081C120.201 17.157 120.404 17.195 120.695 17.195C121.29 17.195 121.854 17.0937 122.386 16.891L122.785 18.088C122.43 18.3793 121.905 18.6327 121.208 18.848C120.511 19.0633 119.808 19.171 119.099 19.171Z" fill="#0B152D"/>
<defs>
<linearGradient id="paint0_linear_73_504" x1="7.14488e-05" y1="12" x2="24.0001" y2="12" gradientUnits="userSpaceOnUse">
<stop stop-color="#DC6A50"/>
<stop offset="1" stop-color="#DC6A50" stop-opacity="0"/>
</linearGradient>
<clipPath id="clip0_73_504">
<rect width="24" height="24" fill="white"/>
</clipPath>
</defs>
</svg>
